<?xml version="1.0" ?><!-- Uploaded to: SVG Repo, www.svgrepo.com, Generator: SVG Repo Mixer Tools -->
<svg width="800px" height="800px" viewBox="0 0 24 24" data-name="016_FOOD" id="_016_FOOD" xmlns="http://www.w3.org/2000/svg"><defs><style>.cls-1{fill:#333;}</style></defs><path class="cls-1" d="M3,20a1,1,0,0,1,1-1H4a1,1,0,0,1,1,1H5a1,1,0,0,1-1,1H4A1,1,0,0,1,3,20Zm0-4a1,1,0,0,1,1-1H4a1,1,0,0,1,1,1H5a1,1,0,0,1-1,1H4A1,1,0,0,1,3,16Zm0-4a1,1,0,0,1,1-1H4a1,1,0,0,1,1,1H5a1,1,0,0,1-1,1H4A1,1,0,0,1,3,12ZM3,8A1,1,0,0,1,4,7H4A1,1,0,0,1,5,8H5A1,1,0,0,1,4,9H4A1,1,0,0,1,3,8ZM3,4A1,1,0,0,1,4,3H4A1,1,0,0,1,5,4H5A1,1,0,0,1,4,5H4A1,1,0,0,1,3,4Z"/><path class="cls-1" d="M7,20a1,1,0,0,1,1-1H8a1,1,0,0,1,1,1H9a1,1,0,0,1-1,1H8A1,1,0,0,1,7,20Zm0-4a1,1,0,0,1,1-1H8a1,1,0,0,1,1,1H9a1,1,0,0,1-1,1H8A1,1,0,0,1,7,16Zm0-4a1,1,0,0,1,1-1H8a1,1,0,0,1,1,1H9a1,1,0,0,1-1,1H8A1,1,0,0,1,7,12ZM7,8A1,1,0,0,1,8,7H8A1,1,0,0,1,9,8H9A1,1,0,0,1,8,9H8A1,1,0,0,1,7,8ZM7,4A1,1,0,0,1,8,3H8A1,1,0,0,1,9,4H9A1,1,0,0,1,8,5H8A1,1,0,0,1,7,4Z"/><path class="cls-1" d="M11,20a1,1,0,0,1,1-1h0a1,1,0,0,1,1,1h0a1,1,0,0,1-1,1h0A1,1,0,0,1,11,20Zm0-4a1,1,0,0,1,1-1h0a1,1,0,0,1,1,1h0a1,1,0,0,1-1,1h0A1,1,0,0,1,11,16Zm0-4a1,1,0,0,1,1-1h0a1,1,0,0,1,1,1h0a1,1,0,0,1-1,1h0A1,1,0,0,1,11,12Zm0-4a1,1,0,0,1,1-1h0a1,1,0,0,1,1,1h0a1,1,0,0,1-1,1h0A1,1,0,0,1,11,8Zm0-4a1,1,0,0,1,1-1h0a1,1,0,0,1,1,1h0a1,1,0,0,1-1,1h0A1,1,0,0,1,11,4Z"/><path class="cls-1" d="M15,20a1,1,0,0,1,1-1h0a1,1,0,0,1,1,1h0a1,1,0,0,1-1,1h0A1,1,0,0,1,15,20Zm0-4a1,1,0,0,1,1-1h0a1,1,0,0,1,1,1h0a1,1,0,0,1-1,1h0A1,1,0,0,1,15,16Zm0-4a1,1,0,0,1,1-1h0a1,1,0,0,1,1,1h0a1,1,0,0,1-1,1h0A1,1,0,0,1,15,12Zm0-4a1,1,0,0,1,1-1h0a1,1,0,0,1,1,1h0a1,1,0,0,1-1,1h0A1,1,0,0,1,15,8Zm0-4a1,1,0,0,1,1-1h0a1,1,0,0,1,1,1h0a1,1,0,0,1-1,1h0A1,1,0,0,1,15,4Z"/><path class="cls-1" d="M19,20a1,1,0,0,1,1-1h0a1,1,0,0,1,1,1h0a1,1,0,0,1-1,1h0A1,1,0,0,1,19,20Zm0-4a1,1,0,0,1,1-1h0a1,1,0,0,1,1,1h0a1,1,0,0,1-1,1h0A1,1,0,0,1,19,16Zm0-4a1,1,0,0,1,1-1h0a1,1,0,0,1,1,1h0a1,1,0,0,1-1,1h0A1,1,0,0,1,19,12Zm0-4a1,1,0,0,1,1-1h0a1,1,0,0,1,1,1h0a1,1,0,0,1-1,1h0A1,1,0,0,1,19,8Zm0-4a1,1,0,0,1,1-1h0a1,1,0,0,1,1,1h0a1,1,0,0,1-1,1h0A1,1,0,0,1,19,4Z"/></svg>